<svg xmlns="http://www.w3.org/2000/svg" xmlns:xlink="http://www.w3.org/1999/xlink" viewBox="0 0 135.16418 49.55224">
  <defs>
    <style>
      .a {
        fill: none;
      }

      .b {
        fill: #c7213d;
      }

      .c {
        clip-path: url(#a);
      }

      .d {
        fill: #004875;
      }
    </style>
    <clipPath id="a">
      <rect class="a" x="-7.29996" y="-9.71542" width="178" height="60.999"/>
    </clipPath>
  </defs>
  <title>UW Health logo</title>
  <rect class="b" x="31.58707" y="17.59759" width="102.98499" height="2.4"/>
  <g class="c">
    <path class="d" d="M48.43344,6.57209c0-.92-.232-1.34-.968-1.34-.716,0-.949.42-.949,1.34v.387h1.917Zm-1.917,1.968v1.146c0,.936.465,1.178.949,1.178.619,0,.987-.323.987-1.517h3.137c-.039,2.113-1.22,3.291-4.105,3.291-3.369,0-4.453-1.258-4.453-4.582,0-3.34,1.316-4.599,4.453-4.599,2.788,0,4.202,1.033,4.202,4.196v.887Z"/>
    <path class="d" d="M57.88562,9.25079v-1.049h-.039c-.193.226-.677.209-1.18.403a1.03037,1.03037,0,0,0-.718,1.129.846.846,0,0,0,.852.953c.775,0,1.085-.484,1.085-1.436m.213,3.162a5.04425,5.04425,0,0,1-.213-.984h-.039a2.5497,2.5497,0,0,1-2.362,1.21c-2.091,0-2.904-1.065-2.904-2.566,0-1.613.677-2.371,2.904-2.807l1.375-.274c.755-.146,1.026-.42,1.026-.952,0-.533-.29-.808-.891-.808-.658,0-.967.243-.987,1.163h-3.021c0-2.502,2.421-2.937,4.008-2.937,2.44,0,4.144.532,4.144,2.807v4.26a3.53811,3.53811,0,0,0,.329,1.888Z"/>
    <rect class="d" x="62.74603" y="0.89158" width="3.48499" height="11.521"/>
    <path class="d" d="M67.19833,3.68378h1.162v-2.566h3.485v2.566h1.374v1.952h-1.374v4.163c0,.5.271.678.833.678h.541v1.936c-.638.065-1.316.097-1.897.097-2.13,0-2.962-.29-2.962-2.227v-4.647h-1.162Z"/>
    <path class="d" d="M74.48392.89188h3.485v3.76h.038a2.743,2.743,0,0,1,2.421-1.194c1.433,0,2.73.548,2.73,2.372v6.583h-3.485v-5.76c0-.727-.232-1.033-.853-1.033-.618,0-.851.306-.851,1.033v5.76h-3.485Z"/>
    <path class="d" d="M37.98114.89188v4.117h-2.737v-.002c-.366.08-1.28.472-1.897,2.235-.265.756-.96,2.943-1.661,5.171h3.558v-4.854h2.737v4.854h3.601V.89188Z"/>
    <rect class="d" x="31.64383" y="0.89198" width="3.60098" height="4.004"/>
    <path class="b" d="M28.68686,4.98238l-.003.358a1.03261,1.03261,0,0,1,1.088,1.096c0,.736-1.699,6.442-1.699,6.442s-2.301-6.516-2.706-7.896h-3.03c-.486,1.51-2.851,8.072-2.851,8.072l-1.919-6.157a2.13641,2.13641,0,0,1-.054-.803c0-.534.633-.754,1.059-.754v-.358h-7.056v.358a1.16617,1.16617,0,0,1,.875.257c.295.38.32,1.319.32,3.655v3.792c0,1.914-.215,4.361-3.05,4.361-3.148,0-3.057-2.314-3.057-3.732v-6.979c0-1.086.174-1.354,1.106-1.354v-.358h-6.698v.358c1.183,0,1.106.617,1.106,2.66v6.074c0,2.504,1.84,4.307,5.902,4.307,3.806,0,5.758-1.694,5.758-5.264v-4.208c.022.071.044.143.066.214l2.875,9.11h1.928l3.441-9.809h.041l3.402,9.809h2.028l3.977-13.251Z"/>
    <path class="d" d="M36.69314,31.269V26.622c0-.88-.183-.985-.525-1.024-.368-.039-.407-.079-.407-.197,0-.092.053-.171.276-.171.144,0,.354.053.826.053.539,0,.67-.053.867-.053.131,0,.263.066.263.171,0,.131-.079.171-.421.197-.302.026-.512.21-.512.657v4.869c0,1.812-.879,2.586-2.283,2.586-1.365,0-2.6-.354-2.6-1.929V26.123c0-.328-.052-.499-.236-.525-.46-.066-.499-.118-.499-.223,0-.079.066-.145.184-.145.25,0,.512.053,1.221.053.827,0,1.273-.053,1.365-.053.157,0,.223.066.223.145,0,.131-.079.144-.486.223-.327.053-.485.184-.485.604v5.277c0,1.181.59,1.785,1.641,1.785.866,0,1.588-.63,1.588-1.995"/>
    <path class="d" d="M41.45795,29.07668c0-.762-.341-1.064-.814-1.064-.499,0-.905.342-1.128.985v3.649c0,.408.157.513.433.591.262.079.301.119.301.184,0,.079-.039.131-.157.131-.249,0-.604-.052-1.142-.052-.42,0-.827.052-1.037.052-.145,0-.21-.026-.21-.144,0-.105.105-.158.275-.197.355-.079.46-.17.46-.617v-3.676c0-.393-.066-.433-.276-.499-.184-.052-.394,0-.394-.144,0-.184.263-.158.801-.446.749-.407.67-.551.841-.551.078,0,.105.052.105.21v.905h.026c.433-.525.787-1.036,1.549-1.036.814,0,1.444.445,1.444,1.653v3.755c0,.262.118.42.433.472.262.053.301.105.301.21,0,.053-.065.105-.17.105-.157,0-.459-.052-1.129-.052-.315,0-.643.052-.958.052-.158,0-.237-.04-.237-.131,0-.105.04-.131.224-.184.394-.118.459-.183.459-.472Z"/>
    <path class="d" d="M44.88373,25.152a.7492.7492,0,1,1-.604.735.66343.66343,0,0,1,.604-.735m.512,7.495c0,.407.118.551.486.591.223.026.302.092.302.157,0,.079-.039.158-.223.158-.25,0-.591-.053-1.129-.053-.578,0-.984.053-1.195.053-.144,0-.21-.026-.21-.145,0-.105.132-.157.276-.197.512-.144.617-.17.617-.617V28.788c0-.355-.197-.368-.46-.42-.144-.027-.249-.04-.249-.171,0-.144.092-.157.249-.197a4.58586,4.58586,0,0,0,1.418-.643c.079,0,.118.039.118.184Z"/>
    <path class="d" d="M46.60324,28.11808c-.079-.236-.105-.249-.289-.288-.21-.04-.289-.053-.289-.171a.16223.16223,0,0,1,.171-.145c.184,0,.565.053,1.05.053.434,0,.906-.053.972-.053.157,0,.196.053.196.158s-.065.145-.249.158c-.341.039-.433.065-.433.209,0,.106.092.25.551,1.799.499,1.654.525,1.772.617,1.772.118,0,.118-.171.604-1.707a7.26385,7.26385,0,0,0,.473-1.68c0-.196-.066-.341-.565-.393-.118-.013-.21-.027-.21-.145a.15882.15882,0,0,1,.171-.171c.039,0,.512.053.814.053a6.3,6.3,0,0,0,.67-.053c.052,0,.117.04.117.145,0,.118-.039.144-.17.171-.236.052-.289.223-.407.59l-1.615,4.962c-.039.131-.066.328-.223.328-.158,0-.197-.197-.237-.328Z"/>
    <path class="d" d="M55.03012,30.21868c.289,0,.394-.092.394-.538a2.08021,2.08021,0,0,0-1.982-2.323c-1.549,0-2.494,1.548-2.494,3.242,0,2.021,1.063,3.11,2.389,3.11a2.06283,2.06283,0,0,0,2.087-1.548c0-.105-.039-.158-.144-.158-.276,0-.197,1.051-1.575,1.051-.998,0-1.549-1.116-1.549-2.377,0-.419.052-.459.275-.459Zm-.682-1.247c0,.761-.354.932-1.588.932-.434,0-.552-.066-.552-.276,0-.262.184-1.956,1.274-1.956.643,0,.866.748.866,1.3"/>
    <path class="d" d="M57.86554,32.50248c0,.473.145.683.552.735.486.066.525.092.525.197,0,.053-.039.119-.144.119-.223,0-.643-.053-1.418-.053-.683,0-1.104.053-1.339.053-.092,0-.171-.027-.171-.105,0-.106.066-.145.394-.211.406-.078.446-.21.446-.643v-3.741c0-.302-.25-.342-.459-.368-.17-.026-.302-.052-.302-.157,0-.197.236-.119,1.011-.551.538-.302.538-.473.656-.473.065,0,.092.105.092.315v1.024c0,.039.013.052.026.052.053,0,.604-1.338,1.496-1.338a.82283.82283,0,0,1,.814.84c0,.419-.236.866-.643.866a.45791.45791,0,0,1-.498-.394c-.079-.263-.027-.499-.25-.499-.446,0-.788.788-.788,1.707Z"/>
    <path class="d" d="M60.47766,31.91168c0-.17.066-.249.197-.249.119,0,.197.118.368.604.236.696.591,1.129,1.22,1.129a1.01806,1.01806,0,0,0,.972-1.142c0-1.536-2.783-1.471-2.783-3.138a1.90634,1.90634,0,0,1,2.021-1.758,3.84954,3.84954,0,0,1,1.208.183c.158.066.171.145.171.932,0,.42-.039.499-.236.499-.368,0-.171-1.3-1.353-1.3a.83638.83638,0,0,0-.891.88c0,1.378,2.782,1.221,2.782,3.203a2.08637,2.08637,0,0,1-2.311,1.955c-.55,0-1.365-.209-1.365-.445Z"/>
    <path class="d" d="M65.88556,25.152a.7492.7492,0,1,1-.604.735.66343.66343,0,0,1,.604-.735m.513,7.495c0,.407.117.551.485.591.223.026.303.092.303.157,0,.079-.04.158-.224.158-.249,0-.59-.053-1.129-.053-.578,0-.984.053-1.194.053-.145,0-.21-.026-.21-.145,0-.105.131-.157.275-.197.512-.144.617-.17.617-.617V28.788c0-.355-.197-.368-.459-.42-.144-.027-.249-.04-.249-.171,0-.144.091-.157.249-.197a4.58626,4.58626,0,0,0,1.417-.643c.079,0,.119.039.119.184Z"/>
    <path class="d" d="M69.12863,27.56718h.84c.131,0,.157.052.157.223s-.026.223-.157.223h-.775c-.053,0-.065.053-.065.079v4.03c0,.577.131.801.393.801.368,0,.487-.631.67-.631.079,0,.118.053.118.171,0,.197-.407,1.247-1.26,1.247-.775,0-.998-.709-.998-1.575v-3.912c0-.157-.04-.21-.145-.21h-.353c-.118,0-.131-.039-.131-.118,0-.158.236-.21.708-.722.67-.722.63-1.286.867-1.286.065,0,.131.079.131.196Z"/>
    <path class="d" d="M71.67474,30.71768c-.906-2.665-.893-2.836-1.13-2.888-.117-.027-.196-.04-.196-.158,0-.091.053-.157.196-.157.132,0,.447.053.959.053s.893-.053.972-.053c.144,0,.21.04.21.144,0,.105-.066.131-.223.171-.394.091-.499.144-.499.367a9.74666,9.74666,0,0,0,.525,1.76c.578,1.732.525,1.863.65594,1.863.119,0,.131-.17.197-.354l.866-2.796a2.243,2.243,0,0,0,.092-.394c0-.263-.171-.394-.512-.446-.184-.027-.236-.04-.236-.131,0-.131.066-.184.21-.184.157,0,.367.053.735.053a6.7325,6.7325,0,0,0,.709-.053.12768.12768,0,0,1,.144.132.19656.19656,0,0,1-.184.183c-.249.039-.407.367-.55.814l-2.272,7.233c-.104.341-.183.512-.682.512-.526,0-.591-.079-.591-.617,0-.552.039-.617.617-.617.525,0,.604-.027.788-.709l.21-.762Z"/>
    <path class="d" d="M82.9498,30.53318c0-1.693-1.062-3.176-2.52-3.176-1.457,0-2.52,1.483-2.52,3.176,0,1.694,1.063,3.177,2.52,3.177,1.45795,0,2.52-1.483,2.52-3.177m-2.52,2.862c-.854,0-1.31305-1.641-1.31305-2.862s.459-2.861,1.31305-2.861,1.313,1.64,1.313,2.861-.45905,2.862-1.313,2.862"/>
    <path class="d" d="M85.20737,32.58148c0,.446.132.486.80194.656.157.04.249.066.249.171s-.053.145-.197.145c-.276,0-.89295-.053-1.339-.053-.394,0-.788.053-1.181.053-.132,0-.197-.053-.197-.145,0-.079.039-.131.222-.171.486-.105.565-.21.565-.682v-4.175c0-.498-.682-.118-.682-.498,0-.132.143-.197.341-.263.223-.079.341-.118.341-.472,0-1.995.762-2.941,1.93-2.941.616,0,.853.21.853.473a2.72184,2.72184,0,0,1-.066.578c-.079.432-.144.511-.355.511-.379,0-.432-1.115-.78595-1.115-.42005,0-.5.577-.5,2.31,0,.525.04.604.211.604h.87995c.065,0,.104.026.104.223s-.039.223-.104.223h-.946c-.105,0-.145.053-.145.197Z"/>
    <path class="d" d="M92.34872,26.00478c-.092-.262-.145-.354-.381-.407-.197-.039-.276-.065-.276-.197,0-.092.105-.17.276-.17s.433.052,1.063.052c.224,0,.723-.052.893-.052.09205,0,.223.039.223.144,0,.131-.079.171-.328.223a.21989.21989,0,0,0-.184.237,13.45486,13.45486,0,0,0,.538,1.824h.026a9.75391,9.75391,0,0,0,.656-1.864c0-.289-.498-.131-.498-.368,0-.131.078-.196.236-.196.144,0,.276.052.63.052.329,0,.526-.052.63-.052a.15463.15463,0,0,1,.158.17c0,.158-.092.145-.262.197-.329.105-.434.171-.604.67l-.631,1.719a1.086,1.086,0,0,0-.105.355,1.228,1.228,0,0,0,.105.315l.788,2.31c.066.21.10505.25.14405.25.07995,0,.066-.092.723-2.232a22.77475,22.77475,0,0,0,.919-3.098c0-.171-.131-.236-.341-.289-.171-.039-.25-.026-.25-.21,0-.105.079-.157.184-.157.17,0,.354.052.695.052.21,0,.407-.052.617-.052.118,0,.171.052.171.17,0,.105-.066.158-.171.197-.355.132-.341.184-.525.735-.355,1.05-.8,2.586-1.404,4.529l-.762,2.508c-.039.13-.079.34-.25.34-.17,0-.209-.21-.249-.34l-.355-1.064c-.681-2.126-.681-2.192-.734-2.192-.039,0-.052.066-.118.263l-.972,2.993c-.052.13-.078.34-.249.34s-.223-.21-.249-.34c-.093-.355-2.311-6.603-2.389-6.827-.27594-.8-.224-.8-.60394-.945-.145-.052-.198-.039-.198-.197,0-.105.066-.17.31494-.17.158,0,.487.052,1.09.052.315,0,.749-.052.892-.052.106,0,.197.039.197.157,0,.131-.131.184-.249.21-.196.04-.262.132-.262.237,0,.157.171.656,1.365,4.187.341,1.011.42,1.299.499,1.299.052,0,.105-.065.722-1.89Z"/>
    <path class="d" d="M99.2792,25.152a.749.749,0,1,1-.605.735.66409.66409,0,0,1,.605-.735m.512,7.495c0,.407.118.551.486.591.223.026.302.092.302.157,0,.079-.04.158-.224.158-.249,0-.59-.053-1.129-.053-.578,0-.984.053-1.194.053-.144,0-.21-.026-.21-.145,0-.105.132-.157.276-.197.511-.144.616-.17.616-.617V28.788c0-.355-.196-.368-.459-.42-.144-.027-.249-.04-.249-.171,0-.144.092-.157.249-.197a4.55577,4.55577,0,0,0,1.417-.643c.08,0,.119.039.119.184Z"/>
    <path class="d" d="M101.156,31.91168c0-.17.066-.249.197-.249.118,0,.197.118.368.604.237.696.591,1.129,1.22,1.129a1.018,1.018,0,0,0,.972-1.142c0-1.536-2.783-1.471-2.783-3.138a1.90632,1.90632,0,0,1,2.021-1.758,3.84943,3.84943,0,0,1,1.20795.183c.158.066.171.145.171.932,0,.42-.039.499-.237.499-.367,0-.17-1.3-1.352-1.3a.83774.83774,0,0,0-.892.88c0,1.378,2.783,1.221,2.783,3.203a2.08659,2.08659,0,0,1-2.31,1.955c-.551,0-1.366-.209-1.366-.445Z"/>
    <path class="d" d="M108.41452,33.05428c1.129,0,1.208-1.077,1.471-1.077.078,0,.143.053.143.237a1.98573,1.98573,0,0,1-2.06,1.496c-1.47,0-2.468-1.313-2.468-3.282a2.81922,2.81922,0,0,1,2.73-3.071,3.3841,3.3841,0,0,1,1.339.249c.184.105.21.144.21.709,0,.906-.026.958-.288.958-.237,0-.316-.092-.512-.459-.473-.866-.539-1.142-.89294-1.142-.617,0-1.37806.893-1.37806,2.441,0,1.654.734,2.941,1.70606,2.941"/>
    <path class="d" d="M115.5159,30.53318c0-1.693-1.064-3.176-2.52-3.176-1.458,0-2.52,1.483-2.52,3.176,0,1.694,1.062,3.177,2.52,3.177,1.456,0,2.52-1.483,2.52-3.177m-2.52,2.862c-.854,0-1.31305-1.641-1.31305-2.862s.45905-2.861,1.31305-2.861c.853,0,1.313,1.64,1.313,2.861s-.46,2.862-1.313,2.862"/>
    <path class="d" d="M119.53262,29.07668c0-.762-.342-1.064-.814-1.064a1.23814,1.23814,0,0,0-1.129.985v3.649c0,.408.158.513.434.591.261.079.301.119.301.184,0,.079-.04.131-.157.131-.249,0-.604-.052-1.142-.052-.421,0-.828.052-1.038.052-.144,0-.21-.026-.21-.144,0-.105.105-.158.276-.197.354-.079.46-.17.46-.617v-3.676c0-.393-.066-.433-.277-.499-.183-.052-.393,0-.393-.144,0-.184.263-.158.801-.446.748-.407.67-.551.84-.551.079,0,.105.052.105.21v.905h.027c.433-.525.786-1.036,1.548-1.036.814,0,1.445.445,1.445,1.653v3.755c0,.262.118.42.433.472.262.053.301.105.301.21,0,.053-.066.105-.17.105-.157,0-.459-.052-1.129-.052-.315,0-.644.052-.959.052-.157,0-.236-.04-.236-.131,0-.105.04-.131.223-.184.394-.118.46-.183.46-.472Z"/>
    <path class="d" d="M121.922,31.91168c0-.17.06494-.249.196-.249.119,0,.197.118.368.604.236.696.591,1.129,1.22,1.129a1.01808,1.01808,0,0,0,.972-1.142c0-1.536-2.783-1.471-2.783-3.138a1.90667,1.90667,0,0,1,2.022-1.758,3.84236,3.84236,0,0,1,1.207.183c.158.066.171.145.171.932,0,.42-.039.499-.236.499-.368,0-.171-1.3-1.353-1.3a.8377.8377,0,0,0-.892.88c0,1.378,2.783,1.221,2.783,3.203a2.086,2.086,0,0,1-2.31,1.955c-.551,0-1.365-.209-1.365-.445Z"/>
    <path class="d" d="M127.32992,25.152a.74921.74921,0,1,1-.604.735.66409.66409,0,0,1,.604-.735m.511,7.495c0,.407.119.551.486.591.224.026.302.092.302.157,0,.079-.039.158-.223.158-.249,0-.59094-.053-1.129-.053-.578,0-.985.053-1.194.053-.14495,0-.21-.026-.21-.145,0-.105.131-.157.275-.197.511-.144.617-.17.617-.617V28.788c0-.355-.197-.368-.459-.42-.145-.027-.25-.04-.25-.171,0-.144.092-.157.25-.197a4.57081,4.57081,0,0,0,1.417-.643c.079,0,.118.039.118.184Z"/>
    <path class="d" d="M132.64535,29.07668c0-.762-.341-1.064-.814-1.064-.499,0-.905.342-1.128.985v3.649c0,.408.157.513.432.591.263.079.302.119.302.184,0,.079-.039.131-.157.131-.25,0-.604-.052-1.142-.052-.42,0-.827.052-1.037.052-.144,0-.21-.026-.21-.144,0-.105.105-.158.276-.197.354-.079.459-.17.459-.617v-3.676c0-.393-.065-.433-.275-.499-.184-.052-.394,0-.394-.144,0-.184.262-.158.801-.446.748-.407.669-.551.84-.551.078,0,.105.052.105.21v.905h.026c.433-.525.787-1.036,1.548-1.036.815,0,1.445.445,1.445,1.653v3.755c0,.262.118.42.433.472.262.053.301.105.301.21,0,.053-.065.105-.17.105-.158,0-.459-.052-1.12806-.052-.316,0-.644.052-.959.052-.158,0-.236-.04-.236-.131,0-.105.039-.131.223-.184.394-.118.459-.183.459-.472Z"/>
    <path class="d" d="M36.11575,41.69518a.1876.1876,0,0,0,.21-.21v-2.468c0-.46-.04-.525-.46-.578-.328-.039-.38-.105-.38-.197s.078-.17.21-.17c.157,0,.459.052,1.286.052.879,0,.997-.052,1.221-.052.17,0,.21.052.21.144,0,.118-.092.158-.394.223-.328.066-.406.118-.406.394v6.616c0,.315.065.433.472.577.262.092.367.066.367.236,0,.106-.079.132-.249.132-.21,0-.342-.053-1.247-.053-.735,0-1.116.053-1.326.053a.16279.16279,0,0,1-.171-.184c0-.131.04-.144.394-.184.302-.039.473-.209.473-.682v-3.072a.1876.1876,0,0,0-.21-.21h-2.258a.18761.18761,0,0,0-.21.21v3.164c0,.381.053.407.604.59.158.053.289.066.289.184,0,.144-.079.184-.25.184-.236,0-.591-.053-1.207-.053-.762,0-1.169.053-1.352.053-.158,0-.21-.026-.21-.158,0-.131.065-.144.315-.21.432-.117.524-.209.524-.629v-6.512c0-.314-.092-.393-.262-.446-.236-.079-.512-.013-.512-.184,0-.118.066-.183.236-.183.263,0,.551.052,1.3.052.761,0,1.05-.039,1.313-.052.092,0,.171.039.171.131,0,.184-.132.118-.605.236-.275.066-.354.237-.354.578v2.468a.18761.18761,0,0,0,.21.21Z"/>
    <path class="d" d="M43.61163,43.37458c0-1.693-1.064-3.176-2.521-3.176s-2.521,1.483-2.521,3.176c0,1.694,1.064,3.177,2.521,3.177s2.521-1.483,2.521-3.177m-2.521,2.862c-.853,0-1.313-1.64-1.313-2.862,0-1.221.46-2.861,1.313-2.861s1.313,1.64,1.313,2.861c0,1.222-.46,2.862-1.313,2.862"/>
    <path class="d" d="M44.31946,44.75358c0-.171.066-.249.197-.249.118,0,.197.117.367.603.237.696.591,1.129,1.221,1.129a1.01808,1.01808,0,0,0,.972-1.142c0-1.536-2.783-1.47-2.783-3.137a1.90715,1.90715,0,0,1,2.021-1.759,3.84959,3.84959,0,0,1,1.208.183c.157.066.17.145.17.933,0,.42-.039.498-.235.498-.368,0-.171-1.299-1.353-1.299a.83666.83666,0,0,0-.892.88c0,1.378,2.782,1.22,2.782,3.203a2.086,2.086,0,0,1-2.31,1.955c-.551,0-1.365-.21-1.365-.446Z"/>
    <path class="d" d="M50.05615,46.25008c0-.144.013-.171.052-.171a1.863,1.863,0,0,0,1.064.341c1.26,0,2.376-1.207,2.376-3.242,0-1.667-.841-2.979-1.996-2.979-.8,0-1.431.839-1.483.839-.039,0-.053-.013-.053-.525,0-.288-.013-.314-.078-.314-.118,0-.158.118-.657.367-.8.407-1.089.341-1.089.538,0,.118.131.118.301.171.289.078.486.065.486.446v6.695c0,.367-.263.341-.538.394-.157.026-.288.013-.288.184,0,.144.144.157.315.157.38,0,.761-.053,1.141-.053.749,0,1.011.053,1.326.053.171,0,.224-.066.224-.157,0-.092-.053-.132-.302-.158-.657-.066-.801-.21-.801-.775Zm0-4.542a.95988.95988,0,0,1,.958-.854c.801,0,1.326.998,1.326,2.652,0,1.602-.525,2.6-1.365,2.6-.604,0-.919-.473-.919-1.366Z"/>
    <path class="d" d="M55.29321,37.99338a.74921.74921,0,1,1-.604.735.66409.66409,0,0,1,.604-.735m.512,7.495c0,.407.118.551.486.591.223.026.302.091.302.157,0,.079-.039.158-.223.158-.25,0-.591-.053-1.13-.053-.578,0-.984.053-1.194.053-.144,0-.21-.026-.21-.145,0-.105.131-.157.276-.196.511-.145.616-.171.616-.617v-3.807c0-.355-.197-.368-.459-.42-.144-.027-.249-.039-.249-.171,0-.144.092-.157.249-.197a4.58586,4.58586,0,0,0,1.418-.643c.079,0,.118.039.118.184Z"/>
    <path class="d" d="M58.46924,40.40858h.841c.131,0,.157.052.157.223s-.026.223-.157.223h-.775c-.053,0-.066.053-.066.079v4.03c0,.577.132.801.394.801.368,0,.486-.631.67-.631.079,0,.118.053.118.171,0,.197-.407,1.247-1.26,1.247-.775,0-.998-.709-.998-1.575v-3.912c0-.157-.04-.21-.145-.21h-.353c-.118,0-.132-.039-.132-.118,0-.158.236-.21.708-.722.67-.722.631-1.286.867-1.286.066,0,.131.079.131.196Z"/>
    <path class="d" d="M63.86484,41.09078c0-.709-.275-.892-1.3-.892a2.77651,2.77651,0,0,0-2.625,1.929.41267.41267,0,0,0,.473.434c.485,0,.747-.355.813-.933a1.10616,1.10616,0,0,1,1.011-1.115.52334.52334,0,0,1,.551.577v1.129c0,.827-2.756,1.746-2.756,3.19a1.00848,1.00848,0,0,0,1.102,1.142c1.024,0,1.418-1.024,1.575-1.024.158,0,.25.972,1.091.972a1.27423,1.27423,0,0,0,1.141-1.051c0-.105-.04-.157-.118-.157-.21,0-.25.42-.526.42-.196,0-.432-.158-.432-.683Zm-1.077,2.967c0,1.181-.341,1.654-.958,1.654-.368,0-.591-.315-.591-.722a3.0164,3.0164,0,0,1,1.418-1.956c.092,0,.131.026.131.184Z"/>
    <path class="d" d="M66.73953,45.40988c0,.485.21.564.564.669.276.079.381.053.381.197,0,.079-.052.119-.197.119-.367,0-.893-.053-1.339-.053-.381,0-.867.053-1.128.053-.145,0-.276-.013-.276-.132,0-.079.066-.131.262-.184.577-.131.656-.236.656-.879v-6.695a.45.45,0,0,0-.381-.498c-.21-.04-.34-.053-.34-.184,0-.145.144-.145.275-.184a5.01882,5.01882,0,0,0,1.418-.591c.079,0,.105.04.105.184Z"/>
    <path class="d" d="M74.79922,41.09078c0-.709-.276-.892-1.3-.892a2.77534,2.77534,0,0,0-2.625,1.929.41232.41232,0,0,0,.472.434c.487,0,.749-.355.813-.933a1.10763,1.10763,0,0,1,1.011-1.115.52409.52409,0,0,1,.552.577v1.129c0,.827-2.757,1.746-2.757,3.19a1.00918,1.00918,0,0,0,1.103,1.142c1.024,0,1.418-1.024,1.57605-1.024.157,0,.249.972,1.089.972a1.27435,1.27435,0,0,0,1.142-1.051c0-.105-.04-.157-.119-.157-.21,0-.249.42-.525.42-.196,0-.432-.158-.432-.683Zm-1.077,2.967c0,1.181-.342,1.654-.95905,1.654-.367,0-.59-.315-.59-.722a3.0132,3.0132,0,0,1,1.418-1.956c.092,0,.131.026.131.184Z"/>
    <path class="d" d="M79.56326,41.91808c0-.762-.341-1.064-.814-1.064-.499,0-.905.342-1.128.985v3.649c0,.407.157.513.433.591.262.079.301.118.301.184,0,.079-.039.131-.157.131-.25,0-.604-.052-1.141-.052-.421,0-.828.052-1.038.052-.14405,0-.21-.026-.21-.144,0-.106.105-.157.276-.197.354-.079.459-.171.459-.617v-3.676c0-.393-.065-.433-.275-.499-.184-.052-.39405,0-.39405-.144,0-.184.262-.158.801-.446.748-.407.669-.551.84-.551.078,0,.105.052.105.21v.905h.026c.433-.525.787-1.036,1.548-1.036.815,0,1.445.445,1.445,1.653v3.755c0,.262.118.42.433.472.262.053.301.105.301.21,0,.053-.065.105-.17.105-.158,0-.459-.052-1.12805-.052-.316,0-.644.052-.959.052-.158,0-.236-.04-.236-.131,0-.105.039-.131.223-.184.394-.118.459-.184.459-.472Z"/>
    <path class="d" d="M86.07431,37.23208c0-.144-.026-.184-.105-.184a8.2609,8.2609,0,0,1-1.418.564c-.184.053-.276.079-.276.197,0,.105.171.158.368.171.354.039.354.302.354.669v1.484c0,.288-.039.327-.104.327a3.58513,3.58513,0,0,0-1.038-.261c-1.351,0-2.415,1.47-2.415,3.438,0,1.76.919,2.914,1.94195,2.914.99805,0,1.366-.682,1.58905-.682.184,0,.026.814.25.814a3.87949,3.87949,0,0,0,.91895-.407c.498-.249.682-.275.682-.485v-.42c0-.08-.066-.106-.14495-.106-.196,0-.196.526-.445.526-.118,0-.158-.079-.158-.211Zm-1.077,7.377c0,.945-.485,1.286-1.063,1.286-.695,0-1.286-.866-1.286-2.56,0-1.982.683-2.822,1.365-2.822.63,0,.984.63.984,1.431Z"/>
    <path class="d" d="M93.42453,46.18408c.473,0,.959-.275,1.23395-1.365.302-1.182.328-1.208.459-1.208.224,0,.25.026.25,1.47,0,.683-.04.867-.197,1.012a3.1855,3.1855,0,0,1-1.772.458c-2.07306,0-3.348-2.034-3.348-4.344,0-2.652,1.485-4.293,3.335-4.293a3.09115,3.09115,0,0,1,1.641.381c.144.092.157.118.157,1.037,0,.971-.026,1.023-.249,1.023-.118,0-.21-.13-.473-.865-.38-1.064-.695-1.208-1.142-1.208-1.181,0-1.851,1.155-1.851,3.872,0,2.743.945,4.03,1.95606,4.03"/>
    <path class="d" d="M97.67715,45.40988c0,.485.21.564.56494.669.276.079.38105.053.38105.197,0,.079-.052.119-.197.119-.368,0-.893-.053-1.34-.053-.38,0-.866.053-1.12805.053-.144,0-.276-.013-.276-.132,0-.079.066-.131.263-.184.577-.131.656-.236.656-.879v-6.695a.45.45,0,0,0-.381-.498c-.21-.04-.341-.053-.341-.184,0-.145.144-.145.276-.184a5.03918,5.03918,0,0,0,1.418-.591c.078,0,.104.04.104.184Z"/>
    <path class="d" d="M100.14511,37.99338a.74921.74921,0,1,1-.604.735.66409.66409,0,0,1,.604-.735m.512,7.495c0,.407.119.551.486.591.224.026.302.091.302.157,0,.079-.039.158-.223.158-.249,0-.591-.053-1.13-.053-.577,0-.984.053-1.194.053-.144,0-.21-.026-.21-.145,0-.105.132-.157.276-.196.511-.145.616-.171.616-.617v-3.807c0-.355-.196-.368-.459-.42-.144-.027-.249-.039-.249-.171,0-.144.092-.157.249-.197a4.585,4.585,0,0,0,1.418-.643c.079,0,.118.039.118.184Z"/>
    <path class="d" d="M105.46145,41.91808c0-.762-.342-1.064-.814-1.064a1.23815,1.23815,0,0,0-1.129.985v3.649c0,.407.158.513.434.591.262.079.301.118.301.184,0,.079-.039.131-.158.131-.249,0-.603-.052-1.141-.052-.42,0-.827.052-1.038.052-.144,0-.21-.026-.21-.144,0-.106.106-.157.276-.197.355-.079.46-.171.46-.617v-3.676c0-.393-.066-.433-.276-.499-.184-.052-.394,0-.394-.144,0-.184.263-.158.801-.446.749-.407.67-.551.841-.551.078,0,.104.052.104.21v.905h.027c.432-.525.787-1.036,1.548-1.036.814,0,1.445.445,1.445,1.653v3.755c0,.262.118.42.433.472.262.053.301.105.301.21,0,.053-.065.105-.17.105-.158,0-.45905-.052-1.129-.052-.315,0-.644.052-.958.052-.158,0-.237-.04-.237-.131,0-.105.04-.131.224-.184.394-.118.459-.184.459-.472Z"/>
    <path class="d" d="M108.887,37.99338a.74921.74921,0,1,1-.604.735.66346.66346,0,0,1,.604-.735m.512,7.495c0,.407.118.551.486.591.223.026.302.091.302.157,0,.079-.04.158-.223.158-.25,0-.591-.053-1.129-.053-.578,0-.984.053-1.194.053-.145,0-.21-.026-.21-.145,0-.105.131-.157.275-.196.512-.145.616-.171.616-.617v-3.807c0-.355-.196-.368-.458-.42-.145-.027-.25-.039-.25-.171,0-.144.092-.157.25-.197a4.58579,4.58579,0,0,0,1.417-.643c.078,0,.118.039.118.184Z"/>
    <path class="d" d="M113.10086,45.89518c1.129,0,1.20795-1.076,1.47-1.076.079,0,.145.052.145.236a1.98626,1.98626,0,0,1-2.061,1.496c-1.47,0-2.468-1.312-2.468-3.281a2.81867,2.81867,0,0,1,2.73-3.071,3.3893,3.3893,0,0,1,1.339.248c.184.105.211.145.211.709,0,.906-.027.959-.289.959-.237,0-.315-.092-.512-.46-.473-.866-.539-1.142-.89294-1.142-.618,0-1.37806.893-1.37806,2.442,0,1.654.734,2.94,1.70606,2.94"/>
    <path class="d" d="M115.34512,44.75358c0-.171.066-.249.197-.249.118,0,.197.117.368.603.236.696.591,1.129,1.22,1.129a1.018,1.018,0,0,0,.972-1.142c0-1.536-2.783-1.47-2.783-3.137a1.90714,1.90714,0,0,1,2.021-1.759,3.8493,3.8493,0,0,1,1.20794.183c.158.066.171.145.171.933,0,.42-.039.498-.236.498-.368,0-.171-1.299-1.353-1.299a.83722.83722,0,0,0-.892.88c0,1.378,2.783,1.22,2.783,3.203a2.087,2.087,0,0,1-2.311,1.955c-.551,0-1.365-.21-1.365-.446Z"/>
  </g>
</svg>
